<svg width="40" height="40" viewBox="0 0 40 40" fill="none" xmlns="http://www.w3.org/2000/svg">
    <rect width="40" height="40" rx="12" fill="#10B981"/>
    <path
        d="M11 20.5C11 16.91 13.91 14 17.5 14H22.5C26.09 14 29 16.91 29 20.5C29 24.09 26.09 27 22.5 27H18.16C17.78 27 17.42 27.14 17.14 27.4L14.7 29.65C14.22 30.1 13.44 29.76 13.44 29.1V26.25C11.95 25.06 11 23.22 11 20.5Z"
        fill="white"
    />
    <path
        d="M16 20.5H20.25L18.35 17.5L24 20.5H19.75L21.65 23.5L16 20.5Z"
        fill="#10B981"
    />
</svg>
